<svg width="174" height="325" viewBox="0 0 174 325" fill="none" xmlns="http://www.w3.org/2000/svg">
<path d="M149.675 187.359C143.355 182.129 138.445 175.179 132.015 170.119C124.115 163.889 125.615 159.499 132.395 153.679C139.675 147.449 145.885 139.989 152.925 133.469C170.675 117.039 175.755 96.4389 172.145 73.4889C164.975 27.8089 125.205 -3.17108 78.9751 0.258922C36.0051 3.44892 1.15512 40.3089 0.545122 84.9289C-0.154878 136.379 -0.214919 187.859 0.565081 239.319C1.29508 287.429 39.5751 324.189 94.4451 324.099C117.415 323.579 141.265 310.829 158.505 286.089C175.935 261.079 183.895 215.659 149.675 187.359ZM16.3751 81.1089C17.8151 53.7089 32.9051 33.3789 57.6251 21.5689C81.0651 10.3589 104.105 13.0989 128.625 28.4789C120.715 28.4789 115.545 28.2289 110.405 28.5189C64.665 31.1189 39.1451 79.7089 63.2851 118.559C66.3451 123.479 66.5251 126.109 62.1251 130.349C47.1051 144.809 32.6251 159.839 16.0051 176.609C16.0051 142.789 14.7651 111.879 16.3751 81.1089ZM51.9251 299.859C29.9951 286.299 17.8251 266.599 15.9151 240.889C15.2751 232.349 15.6551 223.729 15.7251 215.149C15.8251 202.379 21.4651 192.149 30.3251 183.319C54.4051 159.329 78.3851 135.239 102.455 111.229C111.175 102.529 117.145 92.3789 119.345 80.1689C120.255 75.1289 120.395 69.9289 114.155 68.6089C108.065 67.3189 105.635 71.5589 104.765 76.8989C102.305 91.9589 91.2651 101.109 81.2551 110.939C76.3651 115.739 75.5351 109.739 74.3051 107.619C58.9651 81.3789 78.2551 46.1589 109.255 43.5089C129.715 41.7689 145.735 50.1089 153.565 66.5989C162.215 84.8189 159.545 104.619 145.475 118.939C120.935 143.919 95.7351 168.239 71.2551 193.279C45.8451 219.269 47.6852 260.519 74.6452 282.859C89.8452 295.459 107.485 297.269 127.815 294.299C110.475 311.379 75.3751 314.359 51.9251 299.859ZM154.335 253.349C146.145 271.379 131.485 279.799 117.915 280.449C78.5451 280.529 57.4051 244.289 73.7551 215.139C76.3851 210.429 78.1352 209.139 82.5152 213.569C92.4052 223.599 102.815 233.059 104.955 248.139C105.615 252.789 108.935 255.679 113.715 254.749C118.485 253.839 120.085 250.099 119.465 245.359C117.605 231.089 110.185 219.989 100.095 210.169C87.6151 198.019 87.7551 197.879 100.235 185.399C112.955 172.679 112.945 172.679 125.825 185.389C132.165 191.649 138.645 197.759 144.825 204.179C158.395 218.269 162.025 236.429 154.335 253.349Z" fill="#A90081"/>
</svg>
